<svg width="140" height="170" viewBox="0 0 140 170" fill="none" xmlns="http://www.w3.org/2000/svg">
<path d="M44.7364 97.3986C46.6996 100.799 50.3278 102.894 54.2543 102.894L69.9996 64.6317L44.7364 97.3986Z" fill="black"/>
<path d="M54.2543 26.3698C50.3278 26.3698 46.6996 28.4645 44.7364 31.865L69.9996 64.6317L54.2543 26.3698Z" fill="black"/>
<path d="M95.2628 31.865C93.2995 28.4645 89.6713 26.3698 85.7449 26.3698L69.9996 64.6317L95.2628 31.865Z" fill="black"/>
<path d="M85.7449 102.894C89.6713 102.894 93.2995 100.799 95.2628 97.3986L69.9996 64.6317L85.7449 102.894Z" fill="black"/>
<path d="M7.37772 43.8326C4.20788 49.3229 7.62557 56.2735 13.9091 57.1155L28.9911 59.1366L44.7364 31.865L37.9939 23.1197L35.4452 19.814C31.5742 14.7933 23.846 15.3088 20.6761 20.7991L33.007 31.7573L23.0332 49.0324L7.37772 43.8326Z" fill="black"/>
<path d="M89.9472 16.1579L91.5357 12.2978C93.9482 6.43512 89.6377 0 83.298 0L79.9734 16.1579H60.0258L56.7012 0C50.3615 0 46.051 6.43512 48.4636 12.2978L50.052 16.1579L54.2543 26.3698H85.7449L89.9472 16.1579Z" fill="black"/>
<path d="M102.005 23.1197L95.2628 31.865L111.008 59.1366L126.09 57.1155C132.374 56.2735 135.791 49.3229 132.622 43.8326L116.966 49.0324L106.992 31.7573L119.323 20.7991C116.153 15.3088 108.425 14.7933 104.554 19.814L102.005 23.1197Z" fill="black"/>
<path d="M132.621 85.4308C135.791 79.9405 132.374 72.9899 126.09 72.1479L111.008 70.1269L95.2628 97.3986L102.005 106.144L104.554 109.449C108.425 114.47 116.153 113.955 119.323 108.464L106.992 97.5061L116.966 80.231L132.621 85.4308Z" fill="black"/>
<path d="M83.298 129.263C89.6377 129.263 93.9482 122.828 91.5357 116.966L89.9472 113.105L85.7449 102.894H54.2543L50.052 113.105L48.4635 116.966C46.051 122.828 50.3615 129.263 56.7012 129.263L60.0258 113.105H79.9734L83.298 129.263Z" fill="black"/>
<path d="M20.6761 108.464C23.846 113.955 31.5742 114.47 35.4452 109.449L37.9939 106.144L44.7364 97.3986L28.9911 70.1269L13.9091 72.1479C7.62558 72.9899 4.20787 79.9405 7.37772 85.4308L23.0332 80.231L33.007 97.5061L20.6761 108.464Z" fill="black"/>
<path d="M2.00658 161.263V138.681H6.1153L14.7786 151.772H12.8358L21.4672 138.681H25.576V161.263H19.9384V148.109L20.8302 148.364L15.6386 156.167H11.9439L6.78416 148.364L7.67597 148.109V161.263H2.00658ZM36.3481 161.582C34.9043 161.582 33.6196 161.232 32.4942 160.531C31.3688 159.83 30.4876 158.875 29.8506 157.664C29.2136 156.433 28.8951 155.042 28.8951 153.492C28.8951 151.921 29.2136 150.519 29.8506 149.288C30.4876 148.056 31.3688 147.101 32.4942 146.421C33.6196 145.72 34.9043 145.37 36.3481 145.37C37.3249 145.37 38.2167 145.551 39.0236 145.911C39.8305 146.251 40.4887 146.74 40.9983 147.377C41.5292 148.014 41.8477 148.736 41.9538 149.542V157.378C41.8477 158.206 41.5292 158.938 40.9983 159.575C40.4887 160.191 39.8305 160.68 39.0236 161.04C38.2167 161.401 37.3249 161.582 36.3481 161.582ZM37.5266 156.645C38.4397 156.645 39.1722 156.348 39.7243 155.753C40.2976 155.159 40.5843 154.394 40.5843 153.46C40.5843 152.844 40.4569 152.303 40.2021 151.836C39.9472 151.369 39.5863 150.997 39.1191 150.721C38.6732 150.445 38.153 150.307 37.5585 150.307C36.9639 150.307 36.4331 150.445 35.9659 150.721C35.52 150.997 35.1591 151.379 34.883 151.868C34.6282 152.335 34.5008 152.866 34.5008 153.46C34.5008 154.076 34.6282 154.628 34.883 155.116C35.1378 155.583 35.4988 155.955 35.9659 156.231C36.4331 156.507 36.9533 156.645 37.5266 156.645ZM40.3613 161.263V157.091L41.1576 153.269L40.3613 149.511V145.689H45.8077V161.263H40.3613ZM51.8128 161.263V139.255H57.3548V161.263H51.8128ZM48.3729 150.307V145.689H70.8913V150.307H48.3729ZM61.9094 161.263V139.255H67.4514V161.263H61.9094ZM81.0754 161.614C79.3343 161.614 77.7948 161.274 76.4571 160.595C75.1194 159.894 74.0683 158.928 73.3039 157.696C72.5395 156.465 72.1573 155.053 72.1573 153.46C72.1573 151.889 72.5289 150.498 73.2721 149.288C74.0153 148.056 75.0239 147.09 76.2979 146.389C77.5931 145.667 79.0476 145.306 80.6614 145.306C82.2327 145.306 83.6235 145.646 84.8338 146.326C86.0654 146.984 87.0209 147.907 87.7004 149.097C88.4011 150.264 88.7514 151.602 88.7514 153.11C88.7514 153.428 88.7302 153.757 88.6877 154.097C88.6665 154.416 88.6028 154.787 88.4966 155.212L74.769 155.276V151.708L86.2989 151.613L83.8146 153.173C83.7934 152.303 83.666 151.591 83.4324 151.039C83.1988 150.466 82.8591 150.031 82.4132 149.734C81.9673 149.436 81.4046 149.288 80.7251 149.288C80.0244 149.288 79.4192 149.458 78.9096 149.797C78.4 150.137 78.0072 150.615 77.7311 151.231C77.4551 151.846 77.3171 152.589 77.3171 153.46C77.3171 154.352 77.4657 155.116 77.763 155.753C78.0603 156.369 78.4849 156.836 79.037 157.155C79.5891 157.473 80.2686 157.632 81.0754 157.632C81.8399 157.632 82.5087 157.505 83.082 157.25C83.6766 156.995 84.2074 156.603 84.6746 156.072L87.573 158.97C86.8085 159.841 85.8743 160.499 84.7701 160.945C83.6872 161.391 82.4556 161.614 81.0754 161.614ZM91.4814 161.263V145.689H97.0233V161.263H91.4814ZM97.0233 152.791L94.539 150.689C95.1548 148.927 95.9723 147.6 96.9915 146.708C98.0107 145.816 99.3378 145.37 100.973 145.37C101.716 145.37 102.353 145.466 102.884 145.657C103.436 145.848 103.903 146.145 104.285 146.548L101.068 150.848C100.898 150.657 100.654 150.509 100.336 150.402C100.039 150.275 99.6988 150.211 99.3166 150.211C98.5946 150.211 98.0319 150.434 97.6285 150.88C97.2251 151.305 97.0233 151.942 97.0233 152.791ZM120.947 161.263L114.832 151.199H114.258L105.659 138.681H112.443L118.431 148.173H119.004L127.636 161.263H120.947ZM105.277 161.263L113.494 149.192L117.985 151.326L111.774 161.263H105.277ZM119.132 150.689L114.641 148.523L120.724 138.681H127.222L119.132 150.689Z" fill="black"/>
<path d="M131.709 138.164V133.641H132.853V138.164H131.709ZM130.308 134.592V133.603H134.253V134.592H130.308ZM134.536 138.164V133.603H135.358L137.119 136.25H136.721L138.481 133.603H139.303V138.164H138.16V135.517L138.353 135.556L137.299 137.136H136.541L135.5 135.556L135.68 135.517V138.164H134.536Z" fill="black"/>
</svg>
