<svg width="128" height="130" viewBox="0 0 128 130" fill="none" xmlns="http://www.w3.org/2000/svg">
<path d="M38.5606 97.3986C40.5238 100.799 44.1521 102.894 48.0785 102.894L63.8238 64.6317L38.5606 97.3986Z" fill="white"/>
<path d="M48.0785 26.3698C44.1521 26.3698 40.5238 28.4645 38.5606 31.865L63.8238 64.6317L48.0785 26.3698Z" fill="white"/>
<path d="M89.087 31.865C87.1237 28.4645 83.4956 26.3698 79.5691 26.3698L63.8238 64.6317L89.087 31.865Z" fill="white"/>
<path d="M79.5691 102.894C83.4956 102.894 87.1237 100.799 89.087 97.3986L63.8238 64.6317L79.5691 102.894Z" fill="white"/>
<path d="M1.20194 43.8326C-1.9679 49.3229 1.44979 56.2735 7.73332 57.1155L22.8153 59.1366L38.5606 31.865L31.8181 23.1197L29.2694 19.814C25.3984 14.7933 17.6702 15.3088 14.5003 20.7991L26.8312 31.7573L16.8574 49.0324L1.20194 43.8326Z" fill="white"/>
<path d="M83.7714 16.1579L85.3599 12.2978C87.7725 6.43512 83.4619 0 77.1222 0L73.7976 16.1579H53.85L50.5254 0C44.1857 0 39.8752 6.43512 42.2878 12.2978L43.8763 16.1579L48.0785 26.3698H79.5691L83.7714 16.1579Z" fill="white"/>
<path d="M95.8296 23.1197L89.087 31.865L104.832 59.1366L119.914 57.1155C126.198 56.2735 129.616 49.3229 126.446 43.8326L110.79 49.0324L100.816 31.7573L113.147 20.7991C109.977 15.3088 102.249 14.7933 98.3783 19.814L95.8296 23.1197Z" fill="white"/>
<path d="M126.446 85.4308C129.616 79.9405 126.198 72.9899 119.914 72.1479L104.832 70.1269L89.087 97.3986L95.8295 106.144L98.3783 109.449C102.249 114.47 109.977 113.955 113.147 108.464L100.816 97.5061L110.79 80.231L126.446 85.4308Z" fill="white"/>
<path d="M77.1222 129.263C83.4619 129.263 87.7725 122.828 85.3599 116.966L83.7714 113.105L79.5691 102.894H48.0785L43.8762 113.105L42.2878 116.966C39.8752 122.828 44.1857 129.263 50.5254 129.263L53.85 113.105H73.7976L77.1222 129.263Z" fill="white"/>
<path d="M14.5003 108.464C17.6702 113.955 25.3984 114.47 29.2694 109.449L31.8181 106.144L38.5606 97.3986L22.8153 70.1269L7.73333 72.1479C1.4498 72.9899 -1.96791 79.9405 1.20194 85.4308L16.8574 80.231L26.8312 97.5061L14.5003 108.464Z" fill="white"/>
</svg>
