<svg width="258" height="65" viewBox="0 0 258 65" fill="#a9c52f" xmlns="http://www.w3.org/2000/svg">
<path d="M19.2803 48.8698C20.2619 50.57 22.076 51.6174 24.0393 51.6174L31.9119 32.4864L19.2803 48.8698Z" fill="color"/>
<path d="M24.0393 13.3554C22.076 13.3554 20.2619 14.4028 19.2803 16.103L31.9119 32.4864L24.0393 13.3554Z" fill="color"/>
<path d="M44.5435 16.103C43.5619 14.4028 41.7478 13.3554 39.7845 13.3554L31.9119 32.4864L44.5435 16.103Z" fill="color"/>
<path d="M39.7845 51.6174C41.7478 51.6174 43.5619 50.57 44.5435 48.8698L31.9119 32.4864L39.7845 51.6174Z" fill="color"/>
<path d="M0.600971 22.0868C-0.983952 24.832 0.724896 28.3073 3.86666 28.7283L11.4077 29.7388L19.2803 16.103L15.909 11.7304L14.6347 10.0775C12.6992 7.56717 8.83509 7.82492 7.25016 10.5701L13.4156 16.0492L8.42871 24.6867L0.600971 22.0868Z" fill="color"/>
<path d="M41.8857 8.24949L42.6799 6.31944C43.8862 3.38809 41.731 0.170532 38.5611 0.170532L36.8988 8.24949H26.925L25.2627 0.170532C22.0929 0.170532 19.9376 3.38809 21.1439 6.31944L21.9381 8.24949L24.0393 13.3554H39.7845L41.8857 8.24949Z" fill="color"/>
<path d="M47.9148 11.7304L44.5435 16.103L52.4161 29.7388L59.9572 28.7283C63.0989 28.3073 64.8078 24.832 63.2229 22.0868L55.3951 24.6867L50.4082 16.0492L56.5737 10.5701C54.9887 7.82492 51.1246 7.56717 49.1891 10.0775L47.9148 11.7304Z" fill="color"/>
<path d="M63.2229 42.8859C64.8078 40.1408 63.0989 36.6655 59.9572 36.2445L52.4161 35.234L44.5435 48.8698L47.9148 53.2424L49.1891 54.8952C51.1246 57.4056 54.9887 57.1478 56.5737 54.4027L50.4082 48.9236L55.3951 40.286L63.2229 42.8859Z" fill="color"/>
<path d="M38.5611 64.8022C41.7309 64.8022 43.8862 61.5847 42.6799 58.6533L41.8857 56.7233L39.7845 51.6174H24.0393L21.9381 56.7233L21.1439 58.6533C19.9376 61.5847 22.0929 64.8022 25.2627 64.8022L26.925 56.7233H36.8988L38.5611 64.8022Z" fill="color"/>
<path d="M7.25016 54.4027C8.83509 57.1478 12.6992 57.4056 14.6347 54.8952L15.909 53.2424L19.2803 48.8698L11.4077 35.234L3.86666 36.2445C0.724898 36.6655 -0.983953 40.1408 0.600971 42.8859L8.42871 40.286L13.4156 48.9236L7.25016 54.4027Z" fill="v"/>
<path d="M74.8323 49V17.7688H79.7868L92.0847 36.9234H89.5632L101.817 17.7688H106.816V49H99.8704V29.4916L101.109 29.8012L93.1021 42.276H88.5015L80.5389 29.8012L81.7333 29.4916V49H74.8323ZM122.051 49.4424C120.075 49.4424 118.305 48.9558 116.742 47.9826C115.209 47.0093 113.985 45.6822 113.071 44.0012C112.186 42.3202 111.743 40.4033 111.743 38.2505C111.743 36.0976 112.186 34.1807 113.071 32.4997C113.985 30.8187 115.209 29.4916 116.742 28.5184C118.305 27.5451 120.075 27.0585 122.051 27.0585C123.496 27.0585 124.793 27.3387 125.943 27.899C127.123 28.4594 128.082 29.2409 128.819 30.2436C129.556 31.2168 129.969 32.3375 130.057 33.6056V42.8953C129.969 44.1634 129.556 45.2989 128.819 46.3016C128.111 47.2748 127.167 48.0415 125.988 48.6019C124.808 49.1622 123.496 49.4424 122.051 49.4424ZM123.422 43.3377C124.867 43.3377 126.032 42.8658 126.917 41.9221C127.801 40.9489 128.244 39.725 128.244 38.2505C128.244 37.2478 128.037 36.363 127.624 35.5962C127.241 34.8295 126.681 34.2397 125.943 33.8268C125.236 33.3844 124.41 33.1632 123.466 33.1632C122.522 33.1632 121.682 33.3844 120.945 33.8268C120.237 34.2397 119.662 34.8295 119.219 35.5962C118.807 36.363 118.6 37.2478 118.6 38.2505C118.6 39.2237 118.807 40.0937 119.219 40.8604C119.632 41.6272 120.207 42.2318 120.945 42.6741C121.682 43.1165 122.508 43.3377 123.422 43.3377ZM127.978 49V43.205L128.996 37.985L127.978 32.7651V27.5009H134.614V49H127.978ZM143.316 49V18.6093H150.085V49H143.316ZM138.45 33.2517V27.5009H168.576V33.2517H138.45ZM156.941 49V18.6093H163.71V49H156.941ZM182.61 49.4866C180.281 49.4866 178.202 49.0147 176.373 48.071C174.574 47.0978 173.159 45.756 172.126 44.0455C171.094 42.335 170.578 40.4033 170.578 38.2505C170.578 36.0976 171.079 34.1807 172.082 32.4997C173.114 30.7892 174.5 29.4473 176.24 28.4741C177.98 27.5009 179.942 27.0143 182.124 27.0143C184.247 27.0143 186.12 27.4714 187.742 28.3856C189.364 29.2999 190.632 30.568 191.546 32.19C192.49 33.812 192.962 35.67 192.962 37.7639C192.962 38.1472 192.932 38.5601 192.873 39.0025C192.844 39.4154 192.77 39.902 192.652 40.4623L174.117 40.5065V35.8617L189.777 35.8174L186.857 37.7639C186.828 36.5252 186.636 35.5078 186.282 34.7115C185.928 33.8858 185.397 33.2664 184.69 32.8536C184.011 32.4112 183.171 32.19 182.168 32.19C181.106 32.19 180.177 32.4407 179.381 32.942C178.614 33.4139 178.01 34.0922 177.567 34.9769C177.155 35.8617 176.948 36.9381 176.948 38.2062C176.948 39.4743 177.169 40.5655 177.612 41.4797C178.084 42.3645 178.732 43.0575 179.558 43.5589C180.413 44.0307 181.416 44.2667 182.566 44.2667C183.628 44.2667 184.586 44.0897 185.442 43.7358C186.297 43.3524 187.049 42.7921 187.698 42.0548L191.414 45.7707C190.352 47.0093 189.069 47.9383 187.565 48.5576C186.061 49.1769 184.409 49.4866 182.61 49.4866ZM197.114 49V27.5009H203.882V49H197.114ZM203.882 37.1888L201.051 34.9769C201.611 32.4702 202.555 30.5238 203.882 29.1377C205.209 27.7516 207.052 27.0585 209.411 27.0585C210.444 27.0585 211.343 27.2207 212.11 27.5451C212.906 27.8401 213.599 28.3119 214.189 28.9607L210.163 34.048C209.869 33.7236 209.5 33.4729 209.058 33.2959C208.615 33.119 208.114 33.0305 207.553 33.0305C206.433 33.0305 205.533 33.3844 204.855 34.0922C204.206 34.7705 203.882 35.8027 203.882 37.1888ZM238.092 49L229.377 35.0654H228.537L216.504 17.7688H224.776L233.358 30.8629H234.199L246.231 49H238.092ZM215.929 49L227.475 32.2785L232.828 35.2866L223.847 49H215.929ZM234.464 34.2691L229.112 31.261L237.782 17.7688H245.7L234.464 34.2691Z" fill="color"/>
</svg>
